<svg xmlns="http://www.w3.org/2000/svg" width="18" height="18" viewBox="0 0 8 9" fill="none">
  <path d="M4.39668 3.39606C4.61328 3.49948 4.80191 3.65337 4.94671 3.84481C5.09151 4.03624 5.18826 4.25963 5.22882 4.49621C5.26938 4.73279 5.25258 4.97565 5.17982 5.20439C5.10705 5.43313 4.98046 5.64106 4.81068 5.81073L3.31068 7.31073C3.02937 7.59203 2.64784 7.75007 2.25001 7.75007C1.85218 7.75007 1.47065 7.59203 1.18934 7.31073C0.908036 7.02942 0.75 6.64789 0.75 6.25006C0.75 5.85224 0.908036 5.4707 1.18934 5.1894L1.77501 4.60373M6.22501 4.3964L6.81067 3.81073C7.09198 3.52942 7.25002 3.14789 7.25002 2.75006C7.25002 2.35224 7.09198 1.9707 6.81067 1.6894C6.52937 1.40809 6.14784 1.25005 5.75001 1.25005C5.35218 1.25005 4.97065 1.40809 4.68934 1.6894L3.18934 3.1894C3.01955 3.35906 2.89296 3.567 2.8202 3.79574C2.74744 4.02447 2.73064 4.26733 2.7712 4.50391C2.81176 4.74049 2.90851 4.96388 3.05331 5.15532C3.19811 5.34675 3.38673 5.50064 3.60334 5.60406" stroke="#E2E8F0" stroke-width="0.5" stroke-linecap="round" stroke-linejoin="round"/>
</svg>