<svg xmlns="http://www.w3.org/2000/svg" width="20" height="20" viewBox="0 0 10 10" fill="none">
  <g clip-path="url(#clip0_1305_128)">
    <path d="M2.8125 1.25V2.1875M7.1875 1.25V2.1875M1.25 7.8125V3.125C1.25 2.87636 1.34877 2.6379 1.52459 2.46209C1.7004 2.28627 1.93886 2.1875 2.1875 2.1875H7.8125C8.06114 2.1875 8.2996 2.28627 8.47541 2.46209C8.65123 2.6379 8.75 2.87636 8.75 3.125V7.8125M1.25 7.8125C1.25 8.06114 1.34877 8.2996 1.52459 8.47541C1.7004 8.65123 1.93886 8.75 2.1875 8.75H7.8125C8.06114 8.75 8.2996 8.65123 8.47541 8.47541C8.65123 8.2996 8.75 8.06114 8.75 7.8125M1.25 7.8125V4.6875C1.25 4.43886 1.34877 4.2004 1.52459 4.02459C1.7004 3.84877 1.93886 3.75 2.1875 3.75H7.8125C8.06114 3.75 8.2996 3.84877 8.47541 4.02459C8.65123 4.2004 8.75 4.43886 8.75 4.6875V7.8125M5 5.3125H5.00333V5.31583H5V5.3125ZM5 6.25H5.00333V6.25333H5V6.25ZM5 7.1875H5.00333V7.19083H5V7.1875ZM4.0625 6.25H4.06583V6.25333H4.0625V6.25ZM4.0625 7.1875H4.06583V7.19083H4.0625V7.1875ZM3.125 6.25H3.12833V6.25333H3.125V6.25ZM3.125 7.1875H3.12833V7.19083H3.125V7.1875ZM5.9375 5.3125H5.94083V5.31583H5.9375V5.3125ZM5.9375 6.25H5.94083V6.25333H5.9375V6.25ZM5.9375 7.1875H5.94083V7.19083H5.9375V7.1875ZM6.875 5.3125H6.87833V5.31583H6.875V5.3125ZM6.875 6.25H6.87833V6.25333H6.875V6.25Z" stroke="#64748B" stroke-width="0.75" stroke-linecap="round" stroke-linejoin="round"/>
  </g>
  <defs>
    <clipPath id="clip0_1305_128">
      <rect width="10" height="10" fill="white"/>
    </clipPath>
  </defs>
</svg>