<svg xmlns="http://www.w3.org/2000/svg" width="18" height="18" viewBox="0 0 8 9" fill="none">
  <path d="M4.39667 3.39606C4.61327 3.49948 4.8019 3.65337 4.9467 3.84481C5.0915 4.03624 5.18825 4.25963 5.22881 4.49621C5.26937 4.73279 5.25257 4.97565 5.17981 5.20439C5.10704 5.43313 4.98045 5.64106 4.81067 5.81073L3.31067 7.31073C3.02936 7.59203 2.64783 7.75007 2.25 7.75007C1.85217 7.75007 1.47064 7.59203 1.18933 7.31073C0.908027 7.02942 0.74999 6.64789 0.74999 6.25006C0.74999 5.85224 0.908027 5.4707 1.18933 5.1894L1.775 4.60373M6.225 4.3964L6.81067 3.81073C7.09197 3.52942 7.25001 3.14789 7.25001 2.75006C7.25001 2.35224 7.09197 1.9707 6.81067 1.6894C6.52936 1.40809 6.14783 1.25005 5.75 1.25005C5.35217 1.25005 4.97064 1.40809 4.68933 1.6894L3.18933 3.1894C3.01955 3.35906 2.89295 3.567 2.82019 3.79574C2.74743 4.02447 2.73063 4.26733 2.77119 4.50391C2.81175 4.74049 2.9085 4.96388 3.0533 5.15532C3.1981 5.34675 3.38672 5.50064 3.60333 5.60406" stroke="#334155" stroke-width="0.5" stroke-linecap="round" stroke-linejoin="round"/>
</svg>