<svg xmlns="http://www.w3.org/2000/svg" width="20" height="20" viewBox="0 0 10 10" fill="none">
  <g clip-path="url(#clip0_39_297)">
    <path d="M7.99 0.901997C7.96705 0.788968 7.90573 0.687349 7.81643 0.614359C7.72713 0.541369 7.61534 0.501495 7.5 0.501495C7.38467 0.501495 7.27288 0.541369 7.18358 0.614359C7.09428 0.687349 7.03296 0.788968 7.01 0.901997L6.89 1.498C6.87071 1.59481 6.82319 1.68375 6.75343 1.75359C6.68367 1.82344 6.59479 1.87108 6.498 1.8905L5.902 2.0095C5.78843 2.03196 5.68617 2.09313 5.61268 2.18259C5.53918 2.27204 5.49901 2.38422 5.49901 2.5C5.49901 2.61577 5.53918 2.72795 5.61268 2.81741C5.68617 2.90686 5.78843 2.96804 5.902 2.9905L6.498 3.1095C6.59488 3.12883 6.68387 3.17642 6.75372 3.24628C6.82358 3.31613 6.87117 3.40512 6.8905 3.502L7.0095 4.098C7.03196 4.21157 7.09314 4.31383 7.18259 4.38732C7.27205 4.46082 7.38423 4.50099 7.5 4.50099C7.61578 4.50099 7.72796 4.46082 7.81741 4.38732C7.90687 4.31383 7.96804 4.21157 7.9905 4.098L8.1095 3.502C8.12883 3.40512 8.17643 3.31613 8.24628 3.24628C8.31614 3.17642 8.40512 3.12883 8.502 3.1095L9.098 2.9905C9.21158 2.96804 9.31384 2.90686 9.38733 2.81741C9.46082 2.72795 9.501 2.61577 9.501 2.5C9.501 2.38422 9.46082 2.27204 9.38733 2.18259C9.31384 2.09313 9.21158 2.03196 9.098 2.0095L8.502 1.8905C8.40512 1.87117 8.31614 1.82357 8.24628 1.75372C8.17643 1.68386 8.12883 1.59488 8.1095 1.498L7.9905 0.901997H7.99ZM3.4745 2.842C3.44139 2.74233 3.37773 2.65561 3.29256 2.59416C3.20739 2.53271 3.10503 2.49963 3 2.49963C2.89498 2.49963 2.79262 2.53271 2.70744 2.59416C2.62227 2.65561 2.55862 2.74233 2.5255 2.842L2.184 3.8675C2.15947 3.94122 2.11809 4.0082 2.06315 4.06314C2.00821 4.11808 1.94122 4.15946 1.8675 4.184L0.842003 4.5255C0.742333 4.55861 0.65562 4.62227 0.594167 4.70744C0.532714 4.79261 0.499641 4.89497 0.499641 5C0.499641 5.10502 0.532714 5.20738 0.594167 5.29256C0.65562 5.37773 0.742333 5.44138 0.842003 5.4745L1.8675 5.8165C1.94117 5.84098 2.00812 5.88229 2.06306 5.93714C2.11799 5.99198 2.1594 6.05887 2.184 6.1325L2.5255 7.158C2.55862 7.25767 2.62227 7.34438 2.70744 7.40583C2.79262 7.46729 2.89498 7.50036 3 7.50036C3.10503 7.50036 3.20739 7.46729 3.29256 7.40583C3.37773 7.34438 3.44139 7.25767 3.4745 7.158L3.816 6.1325C3.84054 6.05878 3.88192 5.99179 3.93686 5.93685C3.9918 5.88191 4.05878 5.84053 4.1325 5.816L5.158 5.4745C5.25767 5.44138 5.34439 5.37773 5.40584 5.29256C5.46729 5.20738 5.50037 5.10502 5.50037 5C5.50037 4.89497 5.46729 4.79261 5.40584 4.70744C5.34439 4.62227 5.25767 4.55861 5.158 4.5255L4.1325 4.184C4.05878 4.15946 3.9918 4.11808 3.93686 4.06314C3.88192 4.0082 3.84054 3.94122 3.816 3.8675L3.475 2.842H3.4745ZM6.9745 6.842C6.94139 6.74233 6.87773 6.65561 6.79256 6.59416C6.70739 6.53271 6.60503 6.49963 6.5 6.49963C6.39498 6.49963 6.29262 6.53271 6.20744 6.59416C6.12227 6.65561 6.05862 6.74233 6.0255 6.842L5.9335 7.1175C5.90902 7.19116 5.86771 7.25811 5.81286 7.31305C5.75802 7.36798 5.69113 7.40939 5.6175 7.434L5.342 7.5255C5.24233 7.55861 5.15562 7.62227 5.09417 7.70744C5.03271 7.79261 4.99964 7.89497 4.99964 8C4.99964 8.10502 5.03271 8.20738 5.09417 8.29256C5.15562 8.37773 5.24233 8.44138 5.342 8.4745L5.6175 8.566C5.69122 8.59053 5.75821 8.63191 5.81315 8.68685C5.86809 8.74179 5.90947 8.80878 5.934 8.8825L6.0255 9.158C6.05862 9.25767 6.12227 9.34438 6.20744 9.40583C6.29262 9.46729 6.39498 9.50036 6.5 9.50036C6.60503 9.50036 6.70739 9.46729 6.79256 9.40583C6.87773 9.34438 6.94139 9.25767 6.9745 9.158L7.0665 8.8825C7.09099 8.80883 7.13229 8.74188 7.18714 8.68694C7.24199 8.63201 7.30888 8.5906 7.3825 8.566L7.658 8.4745C7.75767 8.44138 7.84439 8.37773 7.90584 8.29256C7.96729 8.20738 8.00037 8.10502 8.00037 8C8.00037 7.89497 7.96729 7.79261 7.90584 7.70744C7.84439 7.62227 7.75767 7.55861 7.658 7.5255L7.3825 7.4335C7.30884 7.40901 7.24189 7.36771 7.18695 7.31286C7.13202 7.25801 7.09061 7.19112 7.066 7.1175L6.9745 6.842Z" fill="#334155"/>
  </g>
  <defs>
    <clipPath id="clip0_39_297">
      <rect width="10" height="10" fill="white"/>
    </clipPath>
  </defs>
</svg>